<svg width="32" height="32" viewBox="0 0 32 32" fill="none" stroke="currentColor" stroke-width="2" stroke-linecap="round" stroke-linejoin="round" xmlns="http://www.w3.org/2000/svg">
  <path d="M26.9478 2.53697L23.3555 2.00568C23.2493 1.98438 23.143 2.02687 23.1005 2.06937L21.5701 4.06737C21.4638 4.19497 21.4426 4.36497 21.485 4.51377C21.5276 4.66257 21.4001 4.79007 21.2513 4.76887L19.9972 4.49258C19.8059 4.45008 19.5933 4.51377 19.4658 4.68387L14.492 11.0606C14.4069 11.1881 14.2369 11.2306 14.0881 11.1669L12.1963 10.3166C12.0263 10.2316 11.835 10.2529 11.6862 10.3591L10.7297 11.0181C10.5809 11.1244 10.3683 11.1456 10.1983 11.0606L9.73072 10.8268C9.43312 10.678 9.07182 10.848 8.98672 11.1669L8.64662 12.676C8.56162 13.0374 8.71042 13.3987 9.02922 13.59L9.75192 14.0364L12.0688 15.4605L13.1954 16.162C13.5142 16.3533 13.9181 16.3107 14.1944 16.0769L16.0861 14.4189C16.2349 14.2914 16.4687 14.2489 16.6388 14.3552L17.2127 14.6528C17.404 14.7591 17.6378 14.7165 17.7866 14.5677L18.7431 13.675C18.8919 13.5262 19.1257 13.505 19.2957 13.59L20.7199 14.2489C20.9324 14.3552 21.1875 14.2914 21.3363 14.1001L21.9952 13.2499L26.9903 6.85197C27.2241 6.55437 27.0753 6.10797 26.6927 6.02297L25.5875 5.76788C25.3536 5.72538 25.2473 5.42778 25.4174 5.25778L27.1391 3.11087C27.3092 2.85587 27.2029 2.57957 26.9478 2.53697Z" fill="none" />
  <path d="M10.4746 15.418C10.3683 15.3542 10.262 15.4605 10.3045 15.5667L10.8359 16.9696C10.8784 17.0759 10.8784 17.1822 10.8572 17.2885L10.3895 19.1165C10.3683 19.244 10.4108 19.3716 10.4958 19.4353L11.8349 20.4768C11.9625 20.5619 12.1325 20.5619 12.2388 20.4556L13.6416 19.2228C13.7267 19.159 13.833 19.1165 13.918 19.0952L15.5122 18.9252C15.6185 18.9039 15.6609 18.7551 15.5547 18.6914L10.4746 15.418Z" fill="none" />
  <path d="M10.0067 20.1368C9.92168 20.0731 9.79408 20.0518 9.68778 20.0943L8.56128 20.647C8.49748 20.6682 8.45498 20.732 8.41248 20.7958L6.01058 26.7261C6.01058 26.7474 6.01058 26.7473 6.01058 26.7686C6.03188 26.7898 6.05308 26.8111 6.09558 26.8111L6.64828 26.5986C6.66948 26.5986 6.69078 26.5986 6.71198 26.5986C6.73328 26.6198 6.75458 26.6623 6.73328 26.6836L5.01158 29.5106C4.96908 29.5744 5.05408 29.6381 5.09658 29.5744L11.3245 23.3252C11.3883 23.2614 11.4096 23.1976 11.4308 23.1127L11.5583 21.4972C11.5583 21.3909 11.5158 21.3059 11.4521 21.2421L10.0067 20.1368Z" fill="none" />
</svg>
  